<svg xmlns="http://www.w3.org/2000/svg" width="419.145" height="403.605"><path d="M281.78 0c-.88.01-1.787.055-2.686.125-35.824 6.184-55.52 44.064-58.375 77.47-4.173 30.31 9.185 69.27 42.467 76.06 4.827.92 9.843.5 14.562-.78 40.076-13.438 58.01-60.903 52.22-100.22C328.283 27.265 309.14-.348 281.78 0zM129.907 1.625C107.63 2.172 90.28 24.763 86.75 46c-7.44 42.074 11.698 94.352 55.53 107.656 4.107.893 8.354.985 12.5.344 29.628-4.938 42.178-38.154 40.94-64.97-.893-35.37-19.267-76.272-56-86.218-3.36-.89-6.632-1.265-9.814-1.187zm248.938 119.5c-38.535 2.305-64.953 40.754-68.72 76.656-5.1 25.896 8.706 60.53 38.25 62.596 41.198-.508 69.302-44.53 70.47-82.406 2.606-25.053-12.15-55.462-40-56.845zm-337.28 8.53c-16.396-.14-32.52 9.68-37.877 26.345-14.292 44.58 14.41 101.038 61.626 110.406 19.705 3.372 37.02-11.76 41.906-29.97 10.353-38.943-10.915-84.164-46.907-101.842-5.864-3.29-12.335-4.883-18.75-4.938zm172.75 79.94c-32.14.067-64.784 16.377-85.595 40.655-22.48 28.297-40.89 61.226-48.095 96.938-8.75 25.706 11.083 55.29 38.563 55.468 33.058.92 61.47-21.783 94.343-23.47 27.89-4.25 52.865 10.257 77.94 19.752 21.35 9.13 50.85 5.63 61.75-17.344 8.573-23.42-4.046-48.39-14.5-69.188-21.322-33.757-44.165-69.236-79.125-90.312-14.013-8.686-29.586-12.534-45.28-12.5z"/></svg>